<?xml version="1.0" encoding="UTF-8"?>
<!DOCTYPE svg PUBLIC "-//W3C//DTD SVG 1.1//EN" "http://www.w3.org/Graphics/SVG/1.1/DTD/svg11.dtd">
<!-- Creator: Corel DESIGNER -->
<svg xmlns="http://www.w3.org/2000/svg" xml:space="preserve" width="215.9mm" height="215.9mm" version="1.1" style="shape-rendering:geometricPrecision; text-rendering:geometricPrecision; image-rendering:optimizeQuality; fill-rule:evenodd; clip-rule:evenodd"
viewBox="0 0 21590 21590"
 xmlns:xlink="http://www.w3.org/1999/xlink"
 xmlns:xodm="http://www.corel.com/coreldraw/odm/2003">
 <defs>
  <style type="text/css">
   <![CDATA[
    .fil1 {fill:#032879}
    .fil0 {fill:#032879;fill-rule:nonzero}
   ]]>
  </style>
   <clipPath id="id0">
    <rect x="44809.24" y="-1644.37" width="33866.66" height="22572.12"/>
   </clipPath>
 </defs>
 <g id="Layer_x0020_1">
  <metadata id="CorelCorpID_0Corel-Layer"/>
  <path class="fil0" d="M5024.14 11036.91c-1.14,-13.83 -2.72,-27.53 -4.76,-41.09l-242.81 0c-4.03,-32.1 -10.15,-63.57 -18.19,-94.25l239.19 0c-4.4,-13.91 -9.28,-27.61 -14.6,-41.08l-236.64 0c-10.56,-32.48 -23.32,-63.96 -38.1,-94.28l227.81 0c-8.57,-14.07 -17.65,-27.79 -27.29,-41.1l-222.17 0c-18.8,-33.1 -40.11,-64.6 -63.64,-94.23l201.9 0c-15.85,-14.54 -32.46,-28.27 -49.76,-41.1l-187.27 0c-6.95,-7.58 -14.09,-15 -21.36,-22.28 -26,-26.01 -53.95,-50.08 -83.61,-71.98l106.96 0c-58.38,-18.17 -120.46,-27.95 -184.83,-27.95 -171.61,0 -326.99,69.55 -439.41,181.96l-11.45 10.75c-105.67,110.92 -170.55,261.82 -170.55,428.61 0,171.63 69.55,327 181.98,439.43 112.44,112.43 267.82,181.98 439.43,181.98 75.58,0 147.92,-13.33 214.74,-37.73l-123.89 0c24.84,-19.22 48.44,-40.01 70.63,-62.19 10.4,-10.38 20.46,-21.08 30.2,-32.07l192.38 0c16.45,-12.9 32.19,-26.62 47.21,-41.1l-205.66 0c22.79,-29.71 43.34,-61.21 61.46,-94.24l223.61 0c9.27,-13.32 18,-27.04 26.22,-41.1l-228.96 0c14.24,-30.34 26.48,-61.81 36.54,-94.25l237.26 0c5.06,-13.49 9.69,-27.19 13.84,-41.1l-239.67 0c7.6,-30.71 13.28,-62.17 16.88,-94.26l242.99 0c1.83,-13.56 3.21,-27.26 4.14,-41.08l-243.67 0c0.8,-13.99 1.19,-28.06 1.19,-42.24 0,-17.5 -0.62,-34.84 -1.81,-52.03l243.54 0zm-1542.72 -582.49l-348.28 0c7.77,-11.16 15.76,-22.18 23.94,-33.05l-350.8 0c9.51,-12.63 19.29,-25.07 29.33,-37.28l-352.06 0c5.84,-7.12 11.77,-14.13 17.76,-21.08l352.07 0 0.81 -0.95 350.79 0 1.65 -1.89 347.39 0c12.02,-14.01 24.37,-27.69 37.02,-41.09l-346.82 0c5.04,-5.27 10.15,-10.47 15.31,-15.62 5.5,-5.5 11.06,-10.96 16.68,-16.34l-350.78 0c13.01,-12.48 26.34,-24.63 39.93,-36.47l-352.08 0c9.49,-8.27 19.15,-16.36 28.93,-24.31l352.06 0 1.1 -0.89 350.77 0 0.78 -0.64 343.79 0c17.16,-14.2 34.77,-27.9 52.76,-41.08l-342.46 0c16.13,-11.5 32.62,-22.58 49.37,-33.23l-350.77 0c20.18,-12.81 40.79,-24.98 61.83,-36.5l-352.09 0c14.23,-7.79 28.64,-15.28 43.23,-22.45l352.08 0 350.77 0 3.42 -1.67 337 0c29.31,-14.98 59.39,-28.71 90.13,-41.1l-331.72 0c32.56,-12.25 65.82,-22.98 99.77,-32.18l-350.73 0c92.73,-25.11 190.26,-38.51 290.91,-38.51 59.68,0 118.26,4.72 175.41,13.79 57.14,-9.07 115.71,-13.79 175.39,-13.79 50.15,0 99.52,3.34 147.9,9.78 68.66,-13.15 139.56,-20.03 212.06,-20.03 309.54,0 589.82,125.5 792.68,328.38 202.87,202.87 328.37,483.14 328.37,792.67 0,309.57 -125.5,589.87 -328.37,792.73l-0.5 -0.49c-203.39,203.22 -483.55,328.88 -792.18,328.88 -72.43,0 -143.27,-6.9 -211.86,-20.02 -48.43,6.46 -97.9,9.8 -148.1,9.8 -59.7,0 -118.32,-4.72 -175.48,-13.79 -57.11,9.05 -115.66,13.79 -175.32,13.79 -59.9,0 -118.7,-4.74 -176.02,-13.88 -57.34,9.14 -116.13,13.88 -176.05,13.88 -145.96,0 -285.35,-28.18 -413.06,-79.36l702.85 0 -1.77 -0.71 333.36 0c-29.2,-12.52 -57.74,-26.25 -85.58,-41.11l-337.94 0c-20.33,-10.4 -40.3,-21.4 -59.87,-32.99l-350.81 0c-20.1,-11.91 -39.84,-24.43 -59.11,-37.53l-352.03 0c-11.82,-8.04 -23.48,-16.29 -34.98,-24.78l352.05 0 -1.32 -0.97 693.75 0c-16.58,-12.59 -32.8,-25.61 -48.63,-39.06l-344.08 0c-13.98,-11.65 -27.66,-23.62 -41.06,-35.91l-350.79 0c-11.69,-10.73 -23.16,-21.72 -34.39,-32.95l-3.43 -3.44 -352.04 0c-7.45,-7.51 -14.78,-15.16 -22.01,-22.86l352.05 0 -1.48 -1.58 594.45 0 0 1.58 0 0.89 104.6 0c-12.35,-13.4 -24.4,-27.09 -36.09,-41.09l-346.56 0c-10.1,-11.89 -19.99,-24.01 -29.59,-36.33l-350.78 0c-9.18,-11.75 -18.09,-23.71 -26.8,-35.83l-352.06 0c-5.24,-7.29 -10.37,-14.66 -15.43,-22.07l526.66 0 1.81 1.13 175.16 0 -0.8 -1.15 347.56 0c-9.07,-13.51 -17.85,-27.19 -26.35,-41.1l-347.91 0c-6.68,-10.78 -13.15,-21.67 -19.46,-32.69l-350.8 0c-7.26,-12.69 -14.28,-25.54 -21.05,-38.53l-352.06 0c-3.64,-6.99 -7.2,-14.04 -10.7,-21.1l352.05 0 -1.34 -2.72 445.56 0 0.69 0.78 253.48 0c-6.59,-13.54 -12.92,-27.26 -18.97,-41.1l-348.73 0c-5.06,-11.45 -9.94,-23 -14.6,-34.64l-350.81 0c-4.59,-11.47 -9.01,-23.04 -13.25,-34.68l-352.07 0c-3.19,-8.85 -6.31,-17.76 -9.3,-26.73l405.84 0 0.94 1.71 352.04 0 0.06 0.1 293.73 0c-4.53,-13.59 -8.77,-27.29 -12.78,-41.1l-349.28 0c-3.3,-11.25 -6.42,-22.55 -9.37,-33.95l-350.8 0c-3.35,-12.93 -6.48,-25.96 -9.37,-39.09l-352.06 0c-1.46,-6.59 -2.84,-13.19 -4.19,-19.83l352.08 0 -0.16 -0.78 350.82 0 -0.12 -0.6 349.48 0c-2.69,-13.61 -5.12,-27.31 -7.33,-41.1l-349.57 0c-1.78,-11.04 -3.39,-22.12 -4.83,-33.26l-350.8 0c-1.58,-12.14 -2.93,-24.33 -4.12,-36.59l-352.08 0c-0.78,-8.01 -1.46,-16.03 -2.06,-24.09l352.06 0 -0.07 -1.04 375.01 0 0.07 0.72 325.45 0c-1,-13.63 -1.78,-27.33 -2.29,-41.08l-349.69 0c-0.42,-11.5 -0.66,-23.02 -0.74,-34.59l-350.81 0 -0.03 -7.65c0,-9.6 0.12,-19.17 0.37,-28.7l-352.08 0c0.2,-7.48 0.48,-14.96 0.82,-22.43l352.08 0 0.09 -2.25 374.1 0 -0.11 1.35 326.42 0c0.64,-13.76 1.51,-27.46 2.65,-41.09l-349.67 0c0.98,-11.78 2.13,-23.53 3.48,-35.21l-350.81 0c1.35,-11.76 2.9,-23.48 4.62,-35.13l-352.06 0c1.17,-8.04 2.46,-16.07 3.83,-24.07l381.74 0 -0.22 0.82 321.22 0 0.11 -0.66 349.63 0c2.34,-13.77 4.9,-27.47 7.74,-41.08l-349.6 0c2.33,-11.13 4.81,-22.21 7.47,-33.21l-350.8 0c3.1,-12.81 6.42,-25.55 9.96,-38.19l-352.09 0c2.08,-7.38 4.23,-14.75 6.45,-22.06l399.83 0 -0.92 1.88 303.38 0 0.82 -2.7 349.47 0c4.17,-13.8 8.57,-27.52 13.26,-41.1l-349.38 0c3.62,-10.45 7.4,-20.85 11.32,-31.16l-350.8 0c5.02,-13.22 10.29,-26.3 15.81,-39.26l-352.08 0c3.32,-7.77 6.72,-15.53 10.2,-23.21l352.05 0 0.83 -1.83 434.76 0 -0.97 1.23 265.63 0c6.23,-13.85 12.75,-27.55 19.53,-41.1l-349.03 0c5.94,-11.82 12.1,-23.52 18.45,-35.07l-350.8 0c6.59,-12 13.4,-23.85 20.41,-35.57l-352.06 0c4.58,-7.63 9.23,-15.21 13.98,-22.73l352.07 0 0.05 -0.09 350.78 0 0.52 -0.8 348.6 0c8.71,-13.89 17.71,-27.61 27.01,-41.1zm-189.48 -475.21c16.64,-0.74 33.38,-1.12 50.2,-1.12 16.83,0 33.56,0.38 50.21,1.12l-100.41 0z"/>
  <path class="fil1" d="M6349.94 12202.4c-230.71,0 -413.13,-75.78 -547.26,-227.36 -134.13,-151.55 -201.2,-361.48 -201.2,-629.74l0 -1311.84 571.42 0 0 1219.29c0,147.54 35.54,262.9 106.62,346.06 71.09,83.16 169.69,124.74 295.77,124.74 123.41,0 226.02,-38.9 307.84,-116.7 81.83,-77.8 122.73,-177.06 122.73,-297.78l0 -1275.61 571.42 0 0 2128.71 -543.25 0 -12.07 -293.75c-72.44,101.94 -167.67,183.09 -285.71,243.45 -118.03,60.36 -246.8,90.53 -386.31,90.53zm2450.42 0c-185.1,0 -351.43,-46.94 -498.97,-140.84 -147.55,-93.88 -263.58,-224.68 -348.09,-392.33 -84.49,-167.67 -126.75,-358.81 -126.75,-573.42 0,-211.93 42.26,-401.06 126.75,-567.39 84.51,-166.34 200.54,-297.79 348.09,-394.35 147.54,-96.58 313.87,-144.87 498.97,-144.87 128.77,0 250.83,25.49 366.19,76.46 115.35,50.97 209.25,115.35 281.67,193.15l0 -878.82 575.45 0 0 2782.18 -543.25 0 -12.07 -249.49c-67.07,83.16 -160.29,152.23 -279.67,207.23 -119.39,55 -248.81,82.49 -388.32,82.49zm128.77 -474.82c160.96,0 291.06,-58.35 390.32,-175.05 99.26,-116.69 148.9,-268.94 148.9,-456.72 0,-185.12 -49.64,-336.02 -148.9,-452.71 -99.26,-116.7 -229.36,-175.05 -390.32,-175.05 -158.29,0 -286.38,58.35 -384.29,175.05 -97.93,116.69 -146.88,267.59 -146.88,452.71 0,187.78 48.95,340.03 146.88,456.72 97.91,116.7 226,175.05 384.29,175.05zm2128.51 434.59l0 -2273.57 -820.9 0 0 -508.61 2269.54 0 0 508.61 -845.05 0 0 2273.57 -603.59 0zm2289.45 40.23c-230.71,0 -432.58,-46.94 -605.61,-140.84 -173.03,-93.88 -307.16,-222.65 -402.41,-386.3 -95.23,-163.64 -142.85,-351.44 -142.85,-563.35 0,-219.99 46.27,-414.48 138.84,-583.49 92.55,-169.02 220.64,-301.14 384.29,-396.37 163.64,-95.23 350.07,-144.2 559.33,-146.88 193.15,2.68 365.51,49.62 517.09,140.84 151.57,91.22 270.28,216.62 356.12,376.26 85.85,159.61 126.1,341.36 120.72,545.25l-4.03 177.04 -1517.04 0c32.19,144.87 105.29,260.23 219.3,346.07 114.02,85.86 259.55,128.77 436.61,128.77 93.9,0 179.74,-14.75 257.54,-44.26 77.78,-29.51 160.96,-80.48 249.49,-152.91l273.64 382.29c-118.06,104.61 -250.84,183.75 -398.39,237.41 -147.54,53.65 -295.09,80.47 -442.64,80.47zm-60.36 -1726.29c-295.09,0 -472.15,132.78 -531.18,398.38l977.84 0 0 -16.1c-8.04,-109.99 -54.33,-201.21 -138.82,-273.64 -84.51,-72.42 -187.12,-108.64 -307.84,-108.64zm2148.62 1726.29c-203.88,0 -386.3,-48.27 -547.26,-144.85 -160.97,-96.58 -287.71,-228.03 -380.26,-394.35 -92.57,-166.35 -138.84,-355.47 -138.84,-567.39 0,-211.93 46.27,-401.06 138.84,-567.39 92.55,-166.34 219.29,-297.79 380.26,-394.35 160.96,-96.58 343.38,-144.87 547.26,-144.87 190.48,0 364.84,34.88 523.12,104.62 158.29,69.75 281.68,166.32 370.22,289.74l-313.87 378.25c-56.35,-77.8 -132.13,-142.86 -227.37,-195.16 -95.23,-52.32 -195.17,-78.48 -299.78,-78.48 -110,0 -207.23,26.16 -291.74,78.48 -84.52,52.3 -150.91,124.07 -199.2,215.27 -48.29,91.22 -72.42,195.84 -72.42,313.89 0,112.66 24.81,215.27 74.43,307.84 49.64,92.55 117.38,164.97 203.22,217.29 85.84,52.3 182.42,78.46 289.73,78.46 104.62,0 200.53,-22.81 287.72,-68.4 87.19,-45.61 165.65,-109.99 235.41,-193.15l309.84 378.25c-91.22,115.36 -217.29,208.58 -378.25,279.68 -160.97,71.09 -331.32,106.62 -511.06,106.62zm1070.19 -40.23l0 -2782.18 563.36 0 0 927.11c75.12,-93.9 171.7,-170.35 289.73,-229.38 118.04,-59.02 241.45,-88.52 370.2,-88.52 488.25,0 732.38,289.72 732.38,869.19l0 1303.78 -571.41 0 0 -1259.52c0,-292.41 -122.07,-433.25 -366.19,-422.52 -128.76,0 -235.4,38.89 -319.91,116.69 -84.49,77.8 -126.75,173.03 -126.75,285.71l0 1279.64 -571.41 0zm2530.88 44.26c-104.62,0 -185.1,-29.52 -241.43,-88.52 -56.34,-59.03 -84.51,-143.52 -84.51,-253.52 0,-99.26 30.19,-180.41 90.55,-243.45 60.35,-63.05 138.83,-94.57 235.39,-94.57 101.96,0 181.09,29.51 237.42,88.54 56.35,59 84.51,142.17 84.51,249.48 0,101.94 -29.51,184.43 -88.52,247.48 -59.03,63.04 -136.83,94.56 -233.41,94.56z"/>
  <g style="clip-path:url(#id0)">
   <image x="44809.24" y="-1644.37" width="33866.66" height="22572.12" xlink:href="OUD TECH LOGO BLUE_Images\OUD TECH LOGO BLUE_ImgID1.png"/>
  </g>
 </g>
</svg>
